<svg aria-hidden="true" style="position:absolute;width:0;height:0" xmlns="http://www.w3.org/2000/svg" overflow="hidden"><defs><symbol id="book" viewBox="0 0 15 15"><path d="M14.562 12.135l-6.783 2.807a.69.69 0 01-.561-.002l.004.002-6.783-2.807a.704.704 0 01-.438-.651V.703A.703.703 0 01.977.055L.972.053h.001l.006.002L7.5 2.753 14.028.052a.703.703 0 01.972.65v10.781a.701.701 0 01-.434.649l-.005.002zM6.797 3.986L1.406 1.755v9.259l5.391 2.231V3.986zm6.797-2.231L8.203 3.986v9.259l5.391-2.231V1.755zm-4.276 3.23l2.578-1.172a.703.703 0 01.586 1.278l-.004.002L9.9 6.265a.703.703 0 01-.586-1.278l.004-.002zm0 2.578l2.578-1.172a.703.703 0 01.586 1.278l-.004.002L9.9 8.843a.703.703 0 01-.586-1.278l.004-.002zm0 2.578l2.578-1.172a.703.703 0 01.586 1.278l-.004.002L9.9 11.421a.703.703 0 01-.586-1.278l.004-.002zM2.813 3.75c.104 0 .202.022.291.063l2.578 1.172a.704.704 0 01-.587 1.279l.005.002-2.578-1.172a.703.703 0 01.291-1.343zm0 2.578c.104 0 .202.022.291.063l2.578 1.172a.704.704 0 01-.587 1.279l.005.002-2.578-1.172a.703.703 0 01.291-1.343zm0 2.578c.104 0 .202.022.291.063l2.578 1.172a.704.704 0 01-.587 1.279l.005.002-2.578-1.172a.703.703 0 01.291-1.343z"/></symbol><symbol id="cart" viewBox="0 0 15 15"><path d="M14.772 4.302h.001l-2.062 4.583a.69.69 0 01-.579.404h-.002l-5.94.396.343.98h6.468a1.376 1.376 0 11-1.375 1.376H5.209a1.375 1.375 0 11-1.375-1.376h1.242L2.429 3.103H.854a.687.687 0 110-1.374h2.063c.3 0 .552.193.647.461l.003-.001.4 1.144h10.18a.687.687 0 01.624.973l.002-.004zm-10.325.406l1.271 3.631 5.907-.394 1.457-3.237H4.447z"/></symbol><symbol id="clock" viewBox="0 0 15 15"><path d="M14.409 4.689A7.412 7.412 0 0010.592.844l-.047-.019a2.753 2.753 0 014.454 2.162v.002a2.73 2.73 0 01-.595 1.705l.004-.006zm-.112 3.045a6.763 6.763 0 01-1.858 4.659l.951.951a.693.693 0 01-.491 1.186.694.694 0 01-.492-.204l-1.021-1.021a6.708 6.708 0 01-3.881 1.225H7.5a6.759 6.759 0 01-3.879-1.22l-1.014 1.014a.701.701 0 01-1.2-.497c0-.194.079-.37.206-.497l.943-.943A6.767 6.767 0 01.704 7.734a6.797 6.797 0 1113.594 0zM7.5 2.344a5.39 5.39 0 100 10.782 5.39 5.39 0 000-10.782zm2.813 6.094H7.5a.703.703 0 01-.703-.703v-3.75a.703.703 0 011.406 0v3.046h2.109a.703.703 0 010 1.406zM.603 4.784A2.779 2.779 0 010 3.049v-.002A2.813 2.813 0 012.813.234c.656 0 1.259.226 1.737.603A7.575 7.575 0 00.622 4.735l-.019.048z"/></symbol><symbol id="comp" viewBox="0 0 15 15"><path d="M14.063 11.719H9.61v1.171l.938.938v.234H4.454v-.234l.938-.938v-1.171H.939a.703.703 0 01-.703-.703V1.641c0-.388.315-.703.703-.703h13.125c.388 0 .703.315.703.703v9.375a.703.703 0 01-.703.703zm-.235-9.844H1.172v7.969h12.656V1.875zM6.094 5.156c.194 0 .37.079.497.206l.44.44 1.378-1.378a.701.701 0 011.2.497c0 .194-.079.37-.206.497L7.528 7.293a.701.701 0 01-.994 0l-.938-.938a.701.701 0 01.497-1.2z"/></symbol><symbol id="digital" viewBox="0 0 15 15"><path d="M14.297 15H.703A.703.703 0 010 14.297V.703C0 .315.315 0 .703 0h13.594c.388 0 .703.315.703.703v13.594a.703.703 0 01-.703.703zm-.703-13.594H1.406v12.188h12.188V1.406zm-10.547.703h2.578a.703.703 0 010 1.406H3.516v2.109a.703.703 0 01-1.406 0V2.108h.938zm-.938 7.266a.703.703 0 011.406 0v2.109h2.109a.703.703 0 010 1.406H2.108V9.374zm7.266-7.266h3.516v3.516a.703.703 0 01-1.406 0V3.516H9.376a.703.703 0 010-1.406zm0 9.375h2.109V9.375a.703.703 0 011.406 0v3.516H9.374a.703.703 0 010-1.406z"/></symbol><symbol id="facebook" viewBox="0 0 15 15"><path d="M10.724.115v2.377s-1.752-.175-2.191.497c-.24.367-.097 1.442-.119 2.214h2.324c-.196.902-.337 1.514-.482 2.295H8.401v7.387h-3.22V7.527h-1.37V5.203h1.355c.069-1.7.095-3.383.94-4.24.948-.964 1.854-.848 4.618-.848z"/></symbol><symbol id="glass" viewBox="0 0 15 15"><path d="M14.431 12.486a1.376 1.376 0 01-1.944 1.944l-4.03-4.029a5.404 5.404 0 01-2.789.766 5.5 5.5 0 110-11 5.5 5.5 0 015.5 5.5 5.438 5.438 0 01-.78 2.814l.014-.025 4.03 4.03zM5.667 1.541a4.125 4.125 0 000 8.25 4.125 4.125 0 000-8.25z"/></symbol><symbol id="home" viewBox="0 0 15 15"><path d="M15 7.969a.703.703 0 01-.703.703.692.692 0 01-.478-.19l-.001.002-6.317-6.317L1.198 8.47a.704.704 0 11-.981-1.007L6.994.685a.702.702 0 01.507-.216.47.47 0 01.037.001h.006l.032.002h.002a.702.702 0 01.437.219l2.767 2.767v-.646a.703.703 0 011.406 0v2.052l2.624 2.624-.002.002a.7.7 0 01.19.478zm-1.406 1.172v4.922a.703.703 0 01-.703.703h-1.406V9.141H8.672v5.625H2.109a.703.703 0 01-.703-.703V9.141L7.5 3.047l6.094 6.094zm-7.266 0H3.515v2.813h2.813V9.141z"/></symbol><symbol id="instagram" viewBox="0 0 15 15"><path d="M13.096 14.885H2.019a1.846 1.846 0 01-1.846-1.846V1.961C.173.941 1 .115 2.019.115h11.077c1.02 0 1.846.827 1.846 1.846v11.078c0 1.02-.827 1.846-1.846 1.846zM7.558 4.638A2.862 2.862 0 004.97 6.282l-.007.017H4.96l-.013.032a2.45 2.45 0 00-.067.164l-.007.021-.033.09a2.095 2.095 0 00-.051.179l-.004.017c-.008.031-.017.061-.024.092a2.5 2.5 0 00-.034.198l-.002.014c-.004.029-.01.057-.013.087a2.862 2.862 0 105.689-.013l.001.013c-.003-.029-.009-.058-.013-.087a2.718 2.718 0 00-.038-.231l.003.019c-.007-.031-.016-.062-.024-.092a2.579 2.579 0 00-.06-.214l.005.018-.033-.09a3.347 3.347 0 00-.081-.204l.008.019-.013-.032h-.003a2.867 2.867 0 00-2.595-1.662zm5.723-2.123a.738.738 0 00-.738-.738h-1.477a.737.737 0 00-.738.738v1.478c0 .408.331.738.738.738h1.477a.738.738 0 00.738-.738V2.515zm0 3.784h-1.362a4.522 4.522 0 01-4.361 5.723h-.002a4.522 4.522 0 01-4.352-5.754l-.008.032H1.834v6.186c0 .408.331.738.738.738h9.969a.738.738 0 00.738-.738V6.3z"/></symbol><symbol id="line" viewBox="0 0 15 15"><path d="M14.297 15H.703A.703.703 0 010 14.297V.703C0 .315.315 0 .703 0h13.594c.388 0 .703.315.703.703v13.594a.703.703 0 01-.703.703zm-.703-13.594H1.406v12.188h12.188V1.406zM2.445 7.612v-.001L4.32 6.44a.7.7 0 01.764.018l-.002-.002.003-.004 3.108 2.072 3.58-2.527a.703.703 0 11.828 1.135l-.002.002-3.985 2.812a.702.702 0 01-.816.006l-3.12-2.08-1.47.919a.703.703 0 11-.768-1.177l.003-.002z"/></symbol><symbol id="pinterest" viewBox="0 0 15 15"><path d="M6.664 9.723c-.121.481-.242.984-.368 1.477-.124.486-.234.978-.414 1.425-.299.739-.68 1.453-1.179 2.031-.332.385-.261.231-.361.211-.076-.016-.083-.091-.098-.199-.081-.587-.026-1.266.004-1.926.035-.752.193-1.378.34-2.003.279-1.191.546-2.358.828-3.556.018-.08.069-.211.052-.257a3.721 3.721 0 01-.248-.981 3.121 3.121 0 01.085-1.143l-.005.022c.16-.61.527-1.151 1.093-1.349.36-.125.759-.068 1.001.076.249.149.421.385.5.719.085.355.022.779-.046 1.091-.154.703-.357 1.231-.541 1.91-.091.336-.194.682-.109 1.045.078.333.252.563.489.736.246.179.537.276.938.262.708-.025 1.201-.478 1.529-.905.527-.684.845-1.606.966-2.703.039-.354.067-.761.04-1.162-.051-.741-.282-1.337-.65-1.798-.35-.44-.846-.79-1.449-.987-.598-.195-1.426-.26-2.162-.134-1.337.229-2.28.989-2.836 2.038A4.038 4.038 0 003.58 5.59v.042-.002c0 .606.149 1.076.391 1.442.077.116.189.212.264.344.107.188-.016.468-.069.672-.063.245-.07.584-.357.59-.119.002-.268-.084-.368-.14-.753-.416-1.21-1.173-1.397-2.154a5.128 5.128 0 01.006-1.9l-.005.032A5.347 5.347 0 014.556.985l.025-.014A6.035 6.035 0 016.835.194c.266-.037.586-.064.91-.076h.016a5.547 5.547 0 012.531.481l-.035-.014c.675.302 1.247.72 1.716 1.234l.004.004a4.687 4.687 0 011.058 1.909c.117.399.23.826.23 1.319 0 .495-.104.931-.178 1.366-.273 1.632-1.049 2.966-2.214 3.726a3.757 3.757 0 01-.985.46l-.027.007a3.694 3.694 0 01-1.294.163 2.628 2.628 0 01-1.157-.34l.013.007c-.312-.176-.573-.392-.759-.718z"/></symbol><symbol id="twitter" viewBox="0 0 15 15"><path d="M10.104 1.501c1.173-.021 1.798.407 2.395.95.507-.043 1.165-.326 1.553-.523l.377-.206c-.222.598-.522 1.067-.983 1.423-.103.078-.204.185-.333.235v.007c.658-.006 1.2-.303 1.715-.464v.007c-.271.43-.637.867-1.027 1.179l-.473.376c.009.696-.01 1.361-.14 1.946-.757 3.401-2.762 5.71-5.936 6.699-1.14.355-2.982.501-4.288.177a11.002 11.002 0 01-1.781-.582 6.798 6.798 0 01-.888-.46l.03.017-.266-.162c.294.009.639.09.968.036.298-.048.59-.035.865-.095.685-.151 1.294-.35 1.818-.657.254-.149.64-.323.821-.538a2.583 2.583 0 01-.902-.162c-.98-.346-1.551-.982-1.922-1.938.297.033 1.153.11 1.353-.059-.374-.021-.733-.237-.991-.398C1.28 7.816.638 6.988.642 5.715l.31.147c.198.084.4.128.636.177.1.021.299.079.414.036h-.015c-.152-.177-.401-.295-.554-.486-.506-.628-.98-1.596-.68-2.748.076-.292.197-.55.325-.789l.015.007c.059.123.19.214.273.317.258.32.577.608.902.862 1.107.865 2.103 1.397 3.703 1.791.407.108.875.172 1.357.177h.003c-.136-.396-.092-1.038.014-1.422.27-.966.856-1.661 1.715-2.034.19-.082.415-.153.649-.202l.024-.004.37-.044z"/></symbol></defs></svg>