<svg aria-hidden="true" style="position: absolute; width: 0; height: 0; overflow: hidden;" version="1.1" xmlns="http://www.w3.org/2000/svg" xmlns:xlink="http://www.w3.org/1999/xlink">
<defs>

<symbol id="book" viewBox="0 0 15 15">
<path d="M14.562 12.135l-6.783 2.807c-0.082 0.037-0.178 0.058-0.278 0.058s-0.196-0.021-0.283-0.060l0.004 0.002-6.783-2.807c-0.259-0.107-0.438-0.358-0.438-0.651v-10.781c0-0.388 0.315-0.703 0.703-0.703 0.097 0 0.189 0.020 0.273 0.055l-0.005-0.002h0l0.001 0 0.006 0.002 6.521 2.698 6.528-2.701c0.079-0.034 0.172-0.053 0.269-0.053 0.388 0 0.703 0.315 0.703 0.703v0 10.781c-0 0.293-0.179 0.544-0.434 0.649l-0.005 0.002zM6.797 3.986l-5.391-2.231v9.259l5.391 2.231v-9.259zM13.594 1.755l-5.391 2.231v9.259l5.391-2.231v-9.259zM9.318 4.985l2.578-1.172c0.085-0.040 0.186-0.063 0.291-0.063 0.388 0 0.703 0.315 0.703 0.703 0 0.283-0.167 0.527-0.408 0.638l-0.004 0.002-2.578 1.172c-0.085 0.040-0.186 0.063-0.291 0.063-0.388 0-0.703-0.315-0.703-0.703 0-0.283 0.167-0.527 0.408-0.638l0.004-0.002zM9.318 7.563l2.578-1.172c0.085-0.040 0.186-0.063 0.291-0.063 0.388 0 0.703 0.315 0.703 0.703 0 0.283-0.167 0.527-0.408 0.638l-0.004 0.002-2.578 1.172c-0.085 0.040-0.186 0.063-0.291 0.063-0.388 0-0.703-0.315-0.703-0.703 0-0.283 0.167-0.527 0.408-0.638l0.004-0.002zM9.318 10.141l2.578-1.172c0.085-0.040 0.186-0.063 0.291-0.063 0.388 0 0.703 0.315 0.703 0.703 0 0.283-0.167 0.527-0.408 0.638l-0.004 0.002-2.578 1.172c-0.085 0.040-0.186 0.063-0.291 0.063-0.388 0-0.703-0.315-0.703-0.703 0-0.283 0.167-0.527 0.408-0.638l0.004-0.002zM2.813 3.75c0.104 0 0.202 0.022 0.291 0.063l2.578 1.172c0.233 0.118 0.39 0.356 0.39 0.63 0 0.389-0.315 0.704-0.704 0.704-0.097 0-0.189-0.020-0.273-0.055l0.005 0.002-2.578-1.172c-0.245-0.114-0.412-0.357-0.412-0.64 0-0.388 0.315-0.703 0.703-0.703h0zM2.813 6.328c0.104 0 0.202 0.022 0.291 0.063l2.578 1.172c0.233 0.118 0.39 0.356 0.39 0.63 0 0.389-0.315 0.704-0.704 0.704-0.097 0-0.189-0.020-0.273-0.055l0.005 0.002-2.578-1.172c-0.245-0.114-0.412-0.357-0.412-0.64 0-0.388 0.315-0.703 0.703-0.703h0zM2.813 8.906c0.104 0 0.202 0.022 0.291 0.063l2.578 1.172c0.233 0.118 0.39 0.356 0.39 0.63 0 0.389-0.315 0.704-0.704 0.704-0.097 0-0.189-0.020-0.273-0.055l0.005 0.002-2.578-1.172c-0.245-0.114-0.412-0.357-0.412-0.64 0-0.388 0.315-0.703 0.703-0.703h0z"></path>
</symbol>

<symbol id="cart" viewBox="0 0 15 15">
<path d="M14.772 4.302h0.001l-2.062 4.583c-0.104 0.227-0.322 0.386-0.579 0.404l-0.002 0-5.94 0.396 0.343 0.98h6.468c0.759 0 1.375 0.616 1.375 1.375s-0.616 1.375-1.375 1.375c-0.759 0-1.375-0.615-1.375-1.374v-0h-6.417c-0 0.759-0.616 1.374-1.375 1.374s-1.375-0.616-1.375-1.375 0.616-1.375 1.375-1.375h1.242l-2.647-7.562h-1.575c-0.38 0-0.687-0.308-0.687-0.687s0.308-0.687 0.687-0.687v0h2.063c0.3 0 0.552 0.193 0.647 0.461l0.003-0.001 0.4 1.144h10.18c0.379 0.001 0.686 0.308 0.686 0.687 0 0.102-0.022 0.199-0.062 0.286l0.002-0.004zM4.447 4.708l1.271 3.631 5.907-0.394 1.457-3.237h-8.635z"></path>
</symbol>

<symbol id="clock" viewBox="0 0 15 15">
<path d="M14.409 4.689c-0.761-1.742-2.122-3.103-3.817-3.845l-0.047-0.019c0.469-0.369 1.058-0.591 1.701-0.591 1.521 0 2.753 1.233 2.753 2.753v0c0 0 0 0.001 0 0.002 0 0.645-0.223 1.237-0.595 1.705l0.004-0.006zM14.297 7.734c0 1.806-0.709 3.442-1.858 4.659l0.951 0.951c0.126 0.126 0.204 0.3 0.204 0.491 0 0.384-0.311 0.695-0.695 0.695-0.192 0-0.366-0.078-0.492-0.204l-1.021-1.021c-1.081 0.766-2.428 1.225-3.881 1.225-0.002 0-0.003 0-0.005 0h0c-1.443 0-2.779-0.453-3.879-1.22l-1.014 1.014c-0.127 0.127-0.303 0.206-0.497 0.206-0.388 0-0.703-0.315-0.703-0.703 0-0.194 0.079-0.37 0.206-0.497l0.943-0.943c-1.145-1.216-1.852-2.851-1.852-4.653 0-3.754 3.043-6.797 6.797-6.797s6.797 3.043 6.797 6.797zM7.5 2.344c-2.977 0-5.391 2.413-5.391 5.391s2.414 5.391 5.391 5.391 5.391-2.414 5.391-5.391c0-2.978-2.414-5.391-5.391-5.391zM10.313 8.438h-2.813c-0.388 0-0.703-0.315-0.703-0.703v0-3.75c0-0.388 0.315-0.703 0.703-0.703s0.703 0.315 0.703 0.703v0 3.046h2.109c0.388 0 0.703 0.315 0.703 0.703s-0.315 0.703-0.703 0.703v0zM0.603 4.784c-0.376-0.472-0.603-1.077-0.603-1.735 0-0.001 0-0.001 0-0.002v0c0-1.553 1.259-2.813 2.813-2.813v0c0.656 0 1.259 0.226 1.737 0.603-1.779 0.777-3.169 2.167-3.928 3.898l-0.019 0.048z"></path>
</symbol>

<symbol id="comp" viewBox="0 0 15 15">
<path d="M14.063 11.719h-4.453v1.171l0.938 0.938v0.234h-6.094v-0.234l0.938-0.938v-1.171h-4.453c-0.388 0-0.703-0.315-0.703-0.703 0-0 0-0 0-0v0-9.375c0-0.388 0.315-0.703 0.703-0.703v0h13.125c0.388 0 0.703 0.315 0.703 0.703v0 9.375c0 0 0 0 0 0 0 0.388-0.315 0.703-0.703 0.703v0zM13.828 1.875h-12.656v7.969h12.656v-7.969zM6.094 5.156c0.194 0 0.37 0.079 0.497 0.206l0.44 0.44 1.378-1.378c0.127-0.127 0.303-0.206 0.497-0.206 0.388 0 0.703 0.315 0.703 0.703 0 0.194-0.079 0.37-0.206 0.497l-1.875 1.875c-0.127 0.127-0.303 0.206-0.497 0.206s-0.37-0.079-0.497-0.206l-0.938-0.938c-0.127-0.127-0.206-0.303-0.206-0.497 0-0.388 0.315-0.703 0.703-0.703h0z"></path>
</symbol>

<symbol id="digital" viewBox="0 0 15 15">
<path d="M14.297 15h-13.594c-0.388 0-0.703-0.315-0.703-0.703v0-13.594c0-0.388 0.315-0.703 0.703-0.703v0h13.594c0.388 0 0.703 0.315 0.703 0.703v0 13.594c0 0.388-0.315 0.703-0.703 0.703v0zM13.594 1.406h-12.188v12.188h12.188v-12.188zM3.047 2.109h2.578c0.388 0 0.703 0.315 0.703 0.703s-0.315 0.703-0.703 0.703v0h-2.109v2.109c0 0.388-0.315 0.703-0.703 0.703s-0.703-0.315-0.703-0.703v0-3.516h0.938zM2.109 9.375c0-0.388 0.315-0.703 0.703-0.703s0.703 0.315 0.703 0.703v0 2.109l2.109 0c0.388 0 0.703 0.315 0.703 0.703s-0.315 0.703-0.703 0.703v0h-3.516v-3.516zM9.375 2.109h3.516v3.516c0 0.388-0.315 0.703-0.703 0.703s-0.703-0.315-0.703-0.703v0-2.109h-2.109c-0.388 0-0.703-0.315-0.703-0.703s0.315-0.703 0.703-0.703v0zM9.375 11.484v-0h2.109v-2.109c0-0.388 0.315-0.703 0.703-0.703s0.703 0.315 0.703 0.703v0 3.516h-3.516c-0.388 0-0.703-0.315-0.703-0.703s0.315-0.703 0.703-0.703v0z"></path>
</symbol>

<symbol id="facebook" viewBox="0 0 15 15">
<path d="M10.724 0.115v2.377s-1.752-0.175-2.191 0.497c-0.24 0.367-0.097 1.442-0.119 2.214h2.324c-0.196 0.902-0.337 1.514-0.482 2.295h-1.855v7.387h-3.22v-7.358h-1.37v-2.324h1.355c0.069-1.7 0.095-3.383 0.94-4.24 0.948-0.964 1.854-0.848 4.618-0.848z"></path>
</symbol>

<symbol id="glass" viewBox="0 0 15 15">
<path d="M14.431 12.486c0.249 0.249 0.403 0.592 0.403 0.972 0 0.759-0.616 1.375-1.375 1.375-0.38 0-0.724-0.154-0.972-0.403l-4.030-4.029c-0.797 0.481-1.76 0.766-2.789 0.766h-0c-3.038 0-5.5-2.462-5.5-5.5s2.462-5.5 5.5-5.5c3.038 0 5.5 2.462 5.5 5.5v0c-0 1.029-0.285 1.992-0.78 2.814l0.014-0.025 4.030 4.030zM5.667 1.541c-2.278 0-4.125 1.847-4.125 4.125s1.847 4.125 4.125 4.125c0 0 0 0 0 0h-0c2.278-0 4.125-1.847 4.125-4.125s-1.847-4.125-4.125-4.125c-0 0-0 0-0 0h0z"></path>
</symbol>

<symbol id="home" viewBox="0 0 15 15">
<path d="M15 7.969c-0 0.388-0.315 0.703-0.703 0.703v0c-0.185-0-0.354-0.072-0.478-0.19l0 0-0.001 0.002-6.317-6.317-6.303 6.303c-0.128 0.13-0.306 0.211-0.503 0.211-0.388 0-0.703-0.315-0.703-0.703 0-0.204 0.086-0.387 0.225-0.515l0-0 6.777-6.778c0.128-0.133 0.308-0.216 0.507-0.216h0c0.012 0 0.024 0 0.037 0.001l0.006 0 0.032 0.002 0.002 0c0.172 0.019 0.325 0.099 0.437 0.219l0-0 2.767 2.767v-0.646c0-0.388 0.315-0.703 0.703-0.703s0.703 0.315 0.703 0.703v0 2.052l2.624 2.624-0.002 0.002c0.117 0.126 0.19 0.293 0.19 0.478zM13.594 9.141v4.922c0 0.388-0.315 0.703-0.703 0.703v0h-1.406v-5.625h-2.813v5.625h-6.563c-0.388 0-0.703-0.315-0.703-0.703v0-4.922l6.094-6.094 6.094 6.094zM6.328 9.141h-2.813v2.813h2.813v-2.813z"></path>
</symbol>

<symbol id="instagram" viewBox="0 0 15 15">
<path d="M13.096 14.885h-11.077c-1.020 0-1.846-0.827-1.846-1.846 0-0 0-0 0-0.001v0-11.076c0-0 0-0 0-0.001 0-1.020 0.827-1.846 1.846-1.846h11.077c1.020 0 1.846 0.827 1.846 1.846 0 0 0 0 0 0.001v-0 11.076c0 0 0 0 0 0.001 0 1.020-0.827 1.846-1.846 1.846v0zM7.558 4.638c-1.144 0.001-2.131 0.673-2.588 1.644l-0.007 0.017h-0.003l-0.013 0.032c-0.019 0.041-0.044 0.102-0.067 0.164l-0.007 0.021c-0.011 0.031-0.023 0.060-0.033 0.090-0.016 0.047-0.035 0.112-0.051 0.179l-0.004 0.017c-0.008 0.031-0.017 0.061-0.024 0.092-0.012 0.053-0.024 0.125-0.034 0.198l-0.002 0.014c-0.004 0.029-0.010 0.057-0.013 0.087-0.011 0.093-0.017 0.2-0.017 0.309 0 1.58 1.281 2.862 2.862 2.862s2.862-1.281 2.862-2.862c0-0.109-0.006-0.216-0.018-0.322l0.001 0.013c-0.003-0.029-0.009-0.058-0.013-0.087-0.011-0.088-0.023-0.16-0.038-0.231l0.003 0.019c-0.007-0.031-0.016-0.062-0.024-0.092-0.020-0.084-0.039-0.15-0.060-0.214l0.005 0.018c-0.010-0.030-0.022-0.059-0.033-0.090-0.030-0.083-0.055-0.144-0.081-0.204l0.008 0.019-0.013-0.032h-0.003c-0.464-0.988-1.451-1.661-2.595-1.662h-0zM13.281 2.515c-0-0.408-0.331-0.738-0.738-0.738 0 0 0 0 0 0h-1.477c-0.408 0-0.738 0.33-0.738 0.738v1.478c0 0.408 0.331 0.738 0.738 0.738h1.477c0.408 0 0.738-0.331 0.738-0.738v0-1.478zM13.281 6.299h-1.362c0.103 0.36 0.162 0.773 0.162 1.201 0 2.498-2.025 4.522-4.523 4.522-0 0-0.001 0-0.001 0h0c-0 0-0.001 0-0.001 0-2.498 0-4.522-2.025-4.522-4.522 0-0.427 0.059-0.841 0.17-1.232l-0.008 0.032h-1.362v6.185c0 0 0 0 0 0.001 0 0.408 0.331 0.738 0.738 0.738h9.969c0.408 0 0.738-0.331 0.738-0.738 0-0 0-0 0-0.001v0-6.185z"></path>
</symbol>

<symbol id="line" viewBox="0 0 15 15">
<path d="M14.297 15h-13.594c-0.388 0-0.703-0.315-0.703-0.703v0-13.594c0-0.388 0.315-0.703 0.703-0.703h13.594c0.388 0 0.703 0.315 0.703 0.703v13.594c0 0.388-0.315 0.703-0.703 0.703v0zM13.594 1.406h-12.188v12.188h12.188v-12.188zM2.445 7.612v-0.001l1.875-1.171c0.105-0.065 0.232-0.104 0.368-0.104 0.147 0 0.283 0.045 0.396 0.122l-0.002-0.002 0.003-0.004 3.108 2.072 3.58-2.527c0.117-0.091 0.266-0.146 0.428-0.146 0.388 0 0.703 0.315 0.703 0.703 0 0.24-0.12 0.451-0.303 0.578l-0.002 0.002h0l-3.985 2.812c-0.115 0.084-0.258 0.133-0.412 0.133-0.15 0-0.29-0.047-0.404-0.127l-3.12-2.080-1.47 0.919c-0.111 0.077-0.249 0.124-0.398 0.124-0.388 0-0.703-0.315-0.703-0.703 0-0.253 0.133-0.474 0.333-0.598l0.003-0.002z"></path>
</symbol>

<symbol id="pinterest" viewBox="0 0 15 15">
<path d="M6.664 9.723c-0.121 0.481-0.242 0.984-0.368 1.477-0.124 0.486-0.234 0.978-0.414 1.425-0.299 0.739-0.68 1.453-1.179 2.031-0.332 0.385-0.261 0.231-0.361 0.211-0.076-0.016-0.083-0.091-0.098-0.199-0.081-0.587-0.026-1.266 0.004-1.926 0.035-0.752 0.193-1.378 0.34-2.003 0.279-1.191 0.546-2.358 0.828-3.556 0.018-0.080 0.069-0.211 0.052-0.257-0.128-0.333-0.211-0.632-0.248-0.981-0.012-0.102-0.019-0.221-0.019-0.341 0-0.277 0.036-0.546 0.104-0.802l-0.005 0.022c0.16-0.61 0.527-1.151 1.093-1.349 0.36-0.125 0.759-0.068 1.001 0.076 0.249 0.149 0.421 0.385 0.5 0.719 0.085 0.355 0.022 0.779-0.046 1.091-0.154 0.703-0.357 1.231-0.541 1.91-0.091 0.336-0.194 0.682-0.109 1.045 0.078 0.333 0.252 0.563 0.489 0.736 0.246 0.179 0.537 0.276 0.938 0.262 0.708-0.025 1.201-0.478 1.529-0.905 0.527-0.684 0.845-1.606 0.966-2.703 0.039-0.354 0.067-0.761 0.040-1.162-0.051-0.741-0.282-1.337-0.65-1.798-0.35-0.44-0.846-0.79-1.449-0.987-0.598-0.195-1.426-0.26-2.162-0.134-1.337 0.229-2.28 0.989-2.836 2.038-0.304 0.558-0.483 1.222-0.483 1.927 0 0.014 0 0.028 0 0.042l-0-0.002c0 0.606 0.149 1.076 0.391 1.442 0.077 0.116 0.189 0.212 0.264 0.344 0.107 0.188-0.016 0.468-0.069 0.672-0.063 0.245-0.070 0.584-0.357 0.59-0.119 0.002-0.268-0.084-0.368-0.14-0.753-0.416-1.21-1.173-1.397-2.154-0.054-0.281-0.085-0.604-0.085-0.934s0.031-0.653 0.091-0.966l-0.005 0.032c0.315-1.522 1.245-2.781 2.511-3.531l0.025-0.014c0.644-0.381 1.37-0.648 2.254-0.777 0.266-0.037 0.586-0.064 0.91-0.076l0.016-0c0.075-0.004 0.162-0.006 0.25-0.006 0.813 0 1.585 0.174 2.281 0.487l-0.035-0.014c0.675 0.302 1.247 0.72 1.716 1.234l0.004 0.004c0.483 0.528 0.835 1.142 1.058 1.909 0.117 0.399 0.23 0.826 0.23 1.319 0 0.495-0.104 0.931-0.178 1.366-0.273 1.632-1.049 2.966-2.214 3.726-0.291 0.193-0.627 0.352-0.985 0.46l-0.027 0.007c-0.385 0.112-0.824 0.196-1.294 0.163-0.424-0.024-0.814-0.145-1.157-0.34l0.013 0.007c-0.312-0.176-0.573-0.392-0.759-0.718z"></path>
</symbol>

<symbol id="twitter" viewBox="0 0 15 15">
<path d="M10.104 1.501c1.173-0.021 1.798 0.407 2.395 0.95 0.507-0.043 1.165-0.326 1.553-0.523l0.377-0.206c-0.222 0.598-0.522 1.067-0.983 1.423-0.103 0.078-0.204 0.185-0.333 0.235v0.007c0.658-0.006 1.2-0.303 1.715-0.464v0.007c-0.271 0.43-0.637 0.867-1.027 1.179l-0.473 0.376c0.009 0.696-0.010 1.361-0.14 1.946-0.757 3.401-2.762 5.71-5.936 6.699-1.14 0.355-2.982 0.501-4.288 0.177-0.647-0.16-1.232-0.342-1.781-0.582-0.337-0.146-0.619-0.294-0.888-0.46l0.030 0.017-0.266-0.162c0.294 0.009 0.639 0.090 0.968 0.036 0.298-0.048 0.59-0.035 0.865-0.095 0.685-0.151 1.294-0.35 1.818-0.657 0.254-0.149 0.64-0.323 0.821-0.538-0.34 0.006-0.649-0.073-0.902-0.162-0.98-0.346-1.551-0.982-1.922-1.938 0.297 0.033 1.153 0.11 1.353-0.059-0.374-0.021-0.733-0.237-0.991-0.398-0.789-0.493-1.431-1.321-1.427-2.594l0.31 0.147c0.198 0.084 0.4 0.128 0.636 0.177 0.1 0.021 0.299 0.079 0.414 0.036h-0.015c-0.152-0.177-0.401-0.295-0.554-0.486-0.506-0.628-0.98-1.596-0.68-2.748 0.076-0.292 0.197-0.55 0.325-0.789l0.015 0.007c0.059 0.123 0.19 0.214 0.273 0.317 0.258 0.32 0.577 0.608 0.902 0.862 1.107 0.865 2.103 1.397 3.703 1.791 0.407 0.108 0.875 0.172 1.357 0.177l0.003 0c-0.136-0.396-0.092-1.038 0.014-1.422 0.27-0.966 0.856-1.661 1.715-2.034 0.19-0.082 0.415-0.153 0.649-0.202l0.024-0.004 0.37-0.044z"></path>
</symbol>
</defs>
</svg>
